<?xml version="1.0" encoding="UTF-8" standalone="no"?>
<svg width="44px" height="33px" viewBox="0 0 44 33" version="1.1" xmlns="http://www.w3.org/2000/svg" xmlns:xlink="http://www.w3.org/1999/xlink" xmlns:sketch="http://www.bohemiancoding.com/sketch/ns">
    <!-- Generator: Sketch 3.3.2 (12043) - http://www.bohemiancoding.com/sketch -->
    <title>Fill 71</title>
    <desc>Created with Sketch.</desc>
    <defs></defs>
    <g id="Page-1" stroke="none" stroke-width="1" fill="none" fill-rule="evenodd" sketch:type="MSPage">
        <g id="sablog_entry" sketch:type="MSArtboardGroup" transform="translate(-648.000000, -3188.000000)" fill="#E0E0E0">
            <path d="M691.215,3189.595 C691.209,3189.542 691.201,3189.492 691.183,3189.443 C691.168,3189.397 691.147,3189.357 691.123,3189.316 C691.1,3189.274 691.076,3189.236 691.045,3189.199 C691.012,3189.158 690.971,3189.126 690.928,3189.093 C690.906,3189.075 690.89,3189.051 690.865,3189.036 C690.851,3189.028 690.835,3189.028 690.82,3189.021 C690.775,3188.996 690.726,3188.983 690.676,3188.969 C690.627,3188.956 690.581,3188.944 690.531,3188.94 C690.515,3188.939 690.5,3188.93 690.482,3188.93 L649.518,3188.93 C649.5,3188.93 649.485,3188.939 649.467,3188.941 C649.42,3188.944 649.375,3188.956 649.328,3188.968 C649.277,3188.983 649.227,3188.996 649.179,3189.021 C649.166,3189.028 649.15,3189.028 649.136,3189.036 C649.11,3189.051 649.096,3189.075 649.072,3189.093 C649.029,3189.126 648.989,3189.158 648.956,3189.199 C648.924,3189.236 648.9,3189.274 648.877,3189.315 C648.853,3189.357 648.832,3189.397 648.816,3189.443 C648.801,3189.492 648.793,3189.542 648.787,3189.595 C648.783,3189.624 648.768,3189.65 648.768,3189.68 L648.768,3220.25 C648.768,3220.664 649.105,3221 649.518,3221 L690.482,3221 C690.896,3221 691.232,3220.664 691.232,3220.25 L691.232,3189.68 C691.232,3189.65 691.219,3189.624 691.215,3189.595 L691.215,3189.595 Z M689.102,3190.43 C686.878,3193.721 679.756,3203.27 670,3206.64 C660.244,3203.27 653.123,3193.721 650.898,3190.43 L689.102,3190.43 L689.102,3190.43 Z M650.269,3192.178 C652.343,3195.13 656.623,3200.541 662.519,3204.511 C656.517,3209.205 652.17,3215.069 650.269,3217.888 L650.269,3192.178 L650.269,3192.178 Z M651.006,3219.5 C652.504,3217.202 657.236,3210.418 663.857,3205.367 C665.691,3206.485 667.664,3207.449 669.762,3208.15 C669.763,3208.151 669.765,3208.15 669.768,3208.151 C669.842,3208.175 669.92,3208.188 670,3208.188 C670.078,3208.188 670.156,3208.175 670.231,3208.151 C670.232,3208.15 670.234,3208.151 670.236,3208.15 C672.335,3207.449 674.304,3206.486 676.137,3205.37 C682.758,3210.421 687.489,3217.203 688.988,3219.5 L651.006,3219.5 L651.006,3219.5 Z M689.731,3217.9 C687.836,3215.086 683.486,3209.215 677.476,3204.514 C683.375,3200.544 687.658,3195.13 689.731,3192.178 L689.731,3217.9 L689.731,3217.9 Z" id="Fill-71" sketch:type="MSShapeGroup"></path>
        </g>
    </g>
</svg>