<?xml version="1.0" encoding="UTF-8" standalone="no"?>
<svg width="30px" height="30px" viewBox="0 0 30 30" version="1.1" xmlns="http://www.w3.org/2000/svg" xmlns:xlink="http://www.w3.org/1999/xlink" xmlns:sketch="http://www.bohemiancoding.com/sketch/ns">
    <!-- Generator: Sketch 3.3.2 (12043) - http://www.bohemiancoding.com/sketch -->
    <title>icon_twitter</title>
    <desc>Created with Sketch.</desc>
    <defs></defs>
    <g id="Page-1" stroke="none" stroke-width="1" fill="none" fill-rule="evenodd" sketch:type="MSPage">
        <g id="sablog_entry" sketch:type="MSArtboardGroup" transform="translate(-647.000000, -2560.000000)">
            <g id="著者" sketch:type="MSLayerGroup" transform="translate(40.000000, 2530.000000)">
                <g id="icon_twitter" transform="translate(607.000000, 30.000000)" sketch:type="MSShapeGroup">
                    <rect id="Rectangle-100-Copy" fill="#55ADEF" x="0" y="0" width="30" height="30"></rect>
                    <path d="M11.5461591,23.1488667 C9.30918008,23.1488667 7.22700639,22.4996297 5.47400584,21.3868718 C5.78389894,21.423092 6.09922999,21.4416217 6.41893967,21.4416217 C8.2747671,21.4416217 9.98278089,20.8146203 11.3384573,19.7627655 C9.60508985,19.7310903 8.142208,18.5972157 7.63817267,17.039047 C7.87998533,17.0848467 8.12815405,17.1093897 8.38338505,17.1093897 C8.74469159,17.1093897 9.09462784,17.0614923 9.42704963,16.9718508 C7.61486712,16.6116064 6.24951543,15.0264474 6.24951543,13.1262144 C6.24951543,13.1097125 6.24951543,13.0932805 6.24979792,13.0769185 C6.78391859,13.3706659 7.39466506,13.5470821 8.04404223,13.5674298 C6.98116823,12.8641422 6.28179008,11.6637006 6.28179008,10.303065 C6.28179008,9.58432436 6.4771329,8.91061429 6.81810005,8.33137046 C8.77181076,10.7041445 11.6905828,12.2655296 14.9827379,12.42908 C14.9152225,12.1420453 14.8801229,11.842704 14.8801229,11.5353216 C14.8801229,9.36945035 16.6537453,7.61346892 18.8414296,7.61346892 C19.9807175,7.61346892 21.0101869,8.08978579 21.7327999,8.85201864 C22.6350776,8.67609186 23.4828343,8.34969034 24.2481742,7.9002939 C23.9524057,8.81607811 23.3243566,9.58467398 22.5064733,10.0700809 C23.3077603,9.975265 24.0711934,9.76444654 24.7815887,9.45251912 C24.2505048,10.2390153 23.5788814,10.9297867 22.8049962,11.4827394 C22.8126234,11.6509047 22.8164371,11.8200489 22.8164371,11.9901021 C22.8164371,17.1727401 18.832178,23.1488667 11.5461591,23.1488667" id="logo_twitter-copy" fill="#FFFFFF"></path>
                </g>
            </g>
        </g>
    </g>
</svg>