<?xml version="1.0" encoding="UTF-8" standalone="no"?>
<svg width="31px" height="30px" viewBox="0 0 31 30" version="1.1" xmlns="http://www.w3.org/2000/svg" xmlns:xlink="http://www.w3.org/1999/xlink" xmlns:sketch="http://www.bohemiancoding.com/sketch/ns">
    <!-- Generator: Sketch 3.3.2 (12043) - http://www.bohemiancoding.com/sketch -->
    <title>ico_google</title>
    <desc>Created with Sketch.</desc>
    <defs></defs>
    <g id="Page-1" stroke="none" stroke-width="1" fill="none" fill-rule="evenodd" sketch:type="MSPage">
        <g id="sablog_entry" sketch:type="MSArtboardGroup" transform="translate(-679.000000, -2560.000000)">
            <g id="著者" sketch:type="MSLayerGroup" transform="translate(40.000000, 2530.000000)">
                <g id="ico_google" transform="translate(639.000000, 30.000000)" sketch:type="MSShapeGroup">
                    <rect id="Rectangle-100-Copy-3" fill="#DB4A39" x="0.149337228" y="0" width="30" height="30"></rect>
                    <path d="M15.8608747,8.62564789 L14.7506747,8.62564789 C14.7506747,8.62564789 16.1526318,9.34650704 15.9615318,11.1417887 C15.8774033,11.9327746 15.5407033,12.3222254 15.1614747,12.7270563 C14.616589,13.3089437 14.227889,13.231493 14.0483033,13.8342535 C13.8962033,14.3443662 14.2849033,14.5644507 14.821989,14.9753239 C15.3156176,15.3526901 15.8805604,15.8007324 16.1942318,16.2965634 C16.7924176,17.2431831 16.7292747,18.7394648 15.5132176,19.7417465 C13.7901604,21.161493 11.328889,20.9512958 10.2515604,20.6587042 C8.24993184,20.1147183 7.56873184,18.3805915 8.68338899,16.9831831 C9.88013184,15.4828732 12.882389,15.452662 12.882389,15.452662 C11.9642176,14.6975634 12.4801318,13.7207324 12.4801318,13.7207324 C10.4924318,13.8879014 9.11666041,12.9749718 9.08564613,11.1322676 C9.05036041,9.02791549 10.777689,8 12.895389,8 L16.9112747,8 L15.8608747,8.62564789 L15.8608747,8.62564789 Z M11.7246461,8.533 C10.6482461,8.85488732 10.414989,10.2290423 10.8090747,11.4841831 C11.2029747,12.7393239 12.1783461,13.5004648 13.3418461,13.1075352 C14.4058033,12.7482958 14.5839033,11.5995352 14.1898176,10.3443944 C13.7957318,9.08907042 12.8010461,8.21111268 11.7246461,8.533 L11.7246461,8.533 Z M13.5002604,16.0105634 C11.8058033,15.9349437 9.94958899,16.3646761 9.73063184,17.7311408 C9.51390327,19.0831408 10.7520604,19.9592676 12.3564461,20.0876197 C13.9023318,20.2113944 15.2244318,19.6798592 15.4023461,18.433507 C15.5628033,17.3100141 14.3378318,16.5937324 13.5002604,16.0105634 L13.5002604,16.0105634 Z M21.0956033,13.2639014 L19.3127461,13.2639014 L19.3127461,11.5061549 L18.4213176,11.5061549 L18.4213176,13.2639014 L16.6384604,13.2639014 L16.6384604,14.1429577 L18.4213176,14.1429577 L18.4213176,15.9005211 L19.3127461,15.9005211 L19.3127461,14.1429577 L21.0956033,14.1429577 L21.0956033,13.2639014 L21.0956033,13.2639014 Z" id="Imported-Layers" fill="#FFFFFF"></path>
                </g>
            </g>
        </g>
    </g>
</svg>